<svg width="1429" height="820" viewBox="0 0 1429 820" fill="none" xmlns="http://www.w3.org/2000/svg">
<path d="M1251.5 112C1497 -118.493 1439.5 -0.99279 1439.5 0.0072422V820.007H0C0 820.007 387.776 715.552 472 660.5C753.5 476.5 686 633 947.5 434.5C1209 236 1006 342.493 1251.5 112Z" fill="#ED039D" fill-opacity="0.15"/>
<path d="M1350.5 168C1450 -111 1429 -0.546692 1429 0.499994V820H14C14 820 135.033 818.164 233.593 770.395C494.418 643.983 899.5 758 978 536.5C1056.5 315.001 1251 447 1350.5 168Z" fill="#ED039D" fill-opacity="0.3"/>
<path d="M1366.5 234C1437.43 -37.7315 1429.68 20.83 1429.68 21.8495V820H421C421 820 504.212 813.211 577.537 771.687C790 651.367 1055.37 783.272 1108.19 543.886C1161 304.5 1295.57 505.732 1366.5 234Z" fill="#4953B8" fill-opacity="0.3"/>
</svg>
