<svg width="149" height="60" viewBox="0 0 149 60" fill="none" xmlns="http://www.w3.org/2000/svg">
<path d="M25.26 41.04H10.47L7.59 51H0.51L13.68 9.6H22.32L35.52 51H28.14L25.26 41.04ZM11.91 35.67H23.79L17.88 15L11.91 35.67Z" fill="#ED039D"/>
<path d="M75.66 30.09C75.66 34.37 75.1 37.88 73.98 40.62C72.86 43.36 71.37 45.48 69.51 46.98C67.65 48.48 65.58 49.53 63.3 50.13C61.02 50.71 58.73 51 56.43 51H46.29V9.6H55.74C58.26 9.6 60.7 9.87 63.06 10.41C65.44 10.95 67.57 11.95 69.45 13.41C71.35 14.85 72.86 16.92 73.98 19.62C75.1 22.3 75.66 25.79 75.66 30.09ZM68.34 30.09C68.34 26.79 68.01 24.14 67.35 22.14C66.71 20.14 65.85 18.62 64.77 17.58C63.69 16.54 62.48 15.84 61.14 15.48C59.8 15.12 58.44 14.94 57.06 14.94H53.25V45.72H57.09C58.53 45.72 59.92 45.49 61.26 45.03C62.6 44.57 63.8 43.77 64.86 42.63C65.94 41.49 66.79 39.91 67.41 37.89C68.03 35.85 68.34 33.25 68.34 30.09Z" fill="#7000FF"/>
<path d="M90.86 30C90.86 33.84 91.28 37.21 92.12 40.11C92.98 43.01 94.31 45.73 96.11 48.27C97.93 50.81 100.27 53.45 103.13 56.19L99.41 59.79C96.19 57.13 93.42 54.36 91.1 51.48C88.8 48.6 87.03 45.43 85.79 41.97C84.55 38.49 83.93 34.5 83.93 30C83.93 25.5 84.55 21.52 85.79 18.06C87.03 14.58 88.8 11.4 91.1 8.52C93.42 5.64 96.19 2.87 99.41 0.209998L103.13 3.81C100.33 6.51 98.02 9.13 96.2 11.67C94.38 14.19 93.03 16.91 92.15 19.83C91.29 22.75 90.86 26.14 90.86 30ZM135.117 30C135.117 26.14 134.677 22.75 133.797 19.83C132.937 16.91 131.597 14.19 129.777 11.67C127.957 9.13 125.647 6.51 122.847 3.81L126.567 0.209998C129.787 2.87 132.547 5.64 134.847 8.52C137.167 11.4 138.947 14.58 140.187 18.06C141.427 21.52 142.047 25.5 142.047 30C142.047 34.5 141.427 38.49 140.187 41.97C138.947 45.43 137.167 48.6 134.847 51.48C132.547 54.36 129.787 57.13 126.567 59.79L122.847 56.19C125.707 53.45 128.037 50.81 129.837 48.27C131.657 45.73 132.987 43.01 133.827 40.11C134.687 37.21 135.117 33.84 135.117 30Z" fill="#ED039D"/>
</svg>
